HIERARCHY
ROOT Hips
{
    OFFSET   0.000000   0.000000   0.000000
    CHANNELS 6 Xposition Yposition Zposition Zrotation Xrotation Yrotation
    JOINT Chest
    {
        OFFSET   0.000000   8.007230   0.000000
        CHANNELS 3 Zrotation Xrotation Yrotation
        JOINT Chest2
        {
            OFFSET   0.000000  22.077100   0.000000
            CHANNELS 3 Zrotation Xrotation Yrotation
            JOINT Neck
            {
                OFFSET   0.000000  23.254700   0.000000
                CHANNELS 3 Zrotation Xrotation Yrotation
                JOINT Head
                {
                    OFFSET   0.000010  14.370000   1.956610
                    CHANNELS 3 Zrotation Xrotation Yrotation
                    End Site
                    {
                        OFFSET   0.000000  19.566000   0.000000
                    }
                }
            }
            JOINT LeftCollar
            {
                OFFSET   3.911900  19.017000  -0.467063
                CHANNELS 3 Zrotation Xrotation Yrotation
                JOINT LeftShoulder
                {
                    OFFSET  10.383700   0.000000   0.000000
                    CHANNELS 3 Zrotation Xrotation Yrotation
                    JOINT LeftElbow
                    {
                        OFFSET  26.662100   0.001671   0.000522
                        CHANNELS 3 Zrotation Xrotation Yrotation
                        JOINT LeftWrist
                        {
                            OFFSET  28.869000   0.000037  -0.000114
                            CHANNELS 3 Zrotation Xrotation Yrotation
                            JOINT LeftFinger0
                            {
                                OFFSET   2.044650  -2.323450   3.252850
                                CHANNELS 3 Zrotation Xrotation Yrotation
                                JOINT LeftFinger01
                                {
                                    OFFSET   3.088140   0.000000   0.000000
                                    CHANNELS 3 Zrotation Xrotation Yrotation
                                    JOINT LeftFinger02
                                    {
                                        OFFSET   2.639460   0.000000   0.000000
                                        CHANNELS 3 Zrotation Xrotation Yrotation
                                        End Site
                                        {
                                            OFFSET   2.582190   0.000000   0.000000
                                        }
                                    }
                                }
                            }
                            JOINT LeftFinger1
                            {
                                OFFSET   8.364480   0.000000   3.252850
                                CHANNELS 3 Zrotation Xrotation Yrotation
                                JOINT LeftFinger11
                                {
                                    OFFSET   4.646930   0.000000   0.000000
                                    CHANNELS 3 Zrotation Xrotation Yrotation
                                    JOINT LeftFinger12
                                    {
                                        OFFSET   2.323470   0.000000   0.000000
                                        CHANNELS 3 Zrotation Xrotation Yrotation
                                        End Site
                                        {
                                            OFFSET   2.273050   0.000000   0.000000
                                        }
                                    }
                                }
                            }
                            JOINT LeftFinger2
                            {
                                OFFSET   8.364490   0.000016   1.078090
                                CHANNELS 3 Zrotation Xrotation Yrotation
                                JOINT LeftFinger21
                                {
                                    OFFSET   5.111620   0.000000   0.000000
                                    CHANNELS 3 Zrotation Xrotation Yrotation
                                    JOINT LeftFinger22
                                    {
                                        OFFSET   2.788150   0.000013   0.000000
                                        CHANNELS 3 Zrotation Xrotation Yrotation
                                        End Site
                                        {
                                            OFFSET   2.727660   0.000000   0.000000
                                        }
                                    }
                                }
                            }
                            JOINT LeftFinger3
                            {
                                OFFSET   7.899780   0.000016  -1.078090
                                CHANNELS 3 Zrotation Xrotation Yrotation
                                JOINT LeftFinger31
                                {
                                    OFFSET   4.646930   0.000000   0.000000
                                    CHANNELS 3 Zrotation Xrotation Yrotation
                                    JOINT LeftFinger32
                                    {
                                        OFFSET   2.323470   0.000000   0.000000
                                        CHANNELS 3 Zrotation Xrotation Yrotation
                                        End Site
                                        {
                                            OFFSET   2.273050   0.000000   0.000000
                                        }
                                    }
                                }
                            }
                            JOINT LeftFinger4
                            {
                                OFFSET   7.435080   0.000000  -3.252850
                                CHANNELS 3 Zrotation Xrotation Yrotation
                                JOINT LeftFinger41
                                {
                                    OFFSET   3.717550   0.000000   0.000000
                                    CHANNELS 3 Zrotation Xrotation Yrotation
                                    JOINT LeftFinger42
                                    {
                                        OFFSET   1.858760   0.000000   0.000000
                                        CHANNELS 3 Zrotation Xrotation Yrotation
                                        End Site
                                        {
                                            OFFSET   1.818440   0.000000   0.000000
                                        }
                                    }
                                }
                            }
                        }
                    }
                }
            }
            JOINT RightCollar
            {
                OFFSET  -3.911900  19.017000  -0.467064
                CHANNELS 3 Zrotation Xrotation Yrotation
                JOINT RightShoulder
                {
                    OFFSET -10.383700   0.000000   0.000000
                    CHANNELS 3 Zrotation Xrotation Yrotation
                    JOINT RightElbow
                    {
                        OFFSET -26.662100   0.001633   0.000260
                        CHANNELS 3 Zrotation Xrotation Yrotation
                        JOINT RightWrist
                        {
                            OFFSET -28.869000  -0.000045  -0.000080
                            CHANNELS 3 Zrotation Xrotation Yrotation
                            JOINT RightFinger0
                            {
                                OFFSET  -2.044660  -2.323490   3.252850
                                CHANNELS 3 Zrotation Xrotation Yrotation
                                JOINT RightFinger01
                                {
                                    OFFSET  -3.088140   0.000000   0.000000
                                    CHANNELS 3 Zrotation Xrotation Yrotation
                                    JOINT RightFinger02
                                    {
                                        OFFSET  -2.639450   0.000000   0.000000
                                        CHANNELS 3 Zrotation Xrotation Yrotation
                                        End Site
                                        {
                                            OFFSET  -2.582190   0.000000   0.000000
                                        }
                                    }
                                }
                            }
                            JOINT RightFinger1
                            {
                                OFFSET  -8.364480   0.000000   3.252850
                                CHANNELS 3 Zrotation Xrotation Yrotation
                                JOINT RightFinger11
                                {
                                    OFFSET  -4.646920   0.000000   0.000000
                                    CHANNELS 3 Zrotation Xrotation Yrotation
                                    JOINT RightFinger12
                                    {
                                        OFFSET  -2.323470   0.000000   0.000000
                                        CHANNELS 3 Zrotation Xrotation Yrotation
                                        End Site
                                        {
                                            OFFSET  -2.273050   0.000000   0.000000
                                        }
                                    }
                                }
                            }
                            JOINT RightFinger2
                            {
                                OFFSET  -8.364480   0.000000   1.078090
                                CHANNELS 3 Zrotation Xrotation Yrotation
                                JOINT RightFinger21
                                {
                                    OFFSET  -5.111610   0.000000   0.000000
                                    CHANNELS 3 Zrotation Xrotation Yrotation
                                    JOINT RightFinger22
                                    {
                                        OFFSET  -2.788160   0.000000   0.000000
                                        CHANNELS 3 Zrotation Xrotation Yrotation
                                        End Site
                                        {
                                            OFFSET  -2.727660   0.000000   0.000000
                                        }
                                    }
                                }
                            }
                            JOINT RightFinger3
                            {
                                OFFSET  -7.899780   0.000000  -1.078090
                                CHANNELS 3 Zrotation Xrotation Yrotation
                                JOINT RightFinger31
                                {
                                    OFFSET  -4.646930   0.000000   0.000000
                                    CHANNELS 3 Zrotation Xrotation Yrotation
                                    JOINT RightFinger32
                                    {
                                        OFFSET  -2.323470   0.000000   0.000000
                                        CHANNELS 3 Zrotation Xrotation Yrotation
                                        End Site
                                        {
                                            OFFSET  -2.273050   0.000000   0.000000
                                        }
                                    }
                                }
                            }
                            JOINT RightFinger4
                            {
                                OFFSET  -7.435090   0.000000  -3.252850
                                CHANNELS 3 Zrotation Xrotation Yrotation
                                JOINT RightFinger41
                                {
                                    OFFSET  -3.717550   0.000000   0.000000
                                    CHANNELS 3 Zrotation Xrotation Yrotation
                                    JOINT RightFinger42
                                    {
                                        OFFSET  -1.858760   0.000000   0.000000
                                        CHANNELS 3 Zrotation Xrotation Yrotation
                                        End Site
                                        {
                                            OFFSET  -1.818440   0.000000   0.000000
                                        }
                                    }
                                }
                            }
                        }
                    }
                }
            }
        }
    }
    JOINT LeftHip
    {
        OFFSET   9.782990   0.000000   0.000000
        CHANNELS 3 Zrotation Xrotation Yrotation
        JOINT LeftKnee
        {
            OFFSET  -0.000063 -41.789100   0.001657
            CHANNELS 3 Zrotation Xrotation Yrotation
            JOINT LeftAnkle
            {
                OFFSET   0.000078 -41.133200  -0.000113
                CHANNELS 3 Zrotation Xrotation Yrotation
                JOINT LeftToe
                {
                    OFFSET   0.000000  -6.358970  14.674500
                    CHANNELS 3 Zrotation Xrotation Yrotation
                    End Site
                    {
                        OFFSET   0.000000   0.000000   3.913200
                    }
                }
            }
        }
    }
    JOINT RightHip
    {
        OFFSET  -9.782990   0.000000   0.000000
        CHANNELS 3 Zrotation Xrotation Yrotation
        JOINT RightKnee
        {
            OFFSET   0.000053 -41.789200   0.000277
            CHANNELS 3 Zrotation Xrotation Yrotation
            JOINT RightAnkle
            {
                OFFSET   0.000030 -41.133200  -0.000150
                CHANNELS 3 Zrotation Xrotation Yrotation
                JOINT RightToe
                {
                    OFFSET   0.000000  -6.358960  14.674500
                    CHANNELS 3 Zrotation Xrotation Yrotation
                    End Site
                    {
                        OFFSET   0.000000   0.000000   3.913200
                    }
                }
            }
        }
    }
}
MOTION
Frames: 4
Frame Time:   0.016667
 -0.339410  89.610100  -0.991874  -1.406520  -2.141210  -0.878551   0.711654   2.102880   0.030125   1.423650   4.205960   0.034128   1.502050  -1.054890   0.026721   2.473100  -2.135090   4.149010  -7.120930   2.652790   0.080716 -69.954500  20.779200  -5.111860  -2.035000  -1.530810 -10.182800   0.554365 -14.486100   1.340150  41.011000  25.386400 -63.041900 -11.115500   0.004319   0.004164  -0.564257   0.000186   0.000268 -17.656000   1.308570  -4.125040 -14.484200  -0.005032  -0.004360 -10.130100  -0.004912   0.000457 -17.102200   0.528128  -1.724190 -17.110100   0.000091  -0.004689 -11.386800  -0.002387  -0.003549 -15.580900  -0.745797   2.681530 -15.598300  -0.001583  -0.005392 -10.388500  -0.002735  -0.004113 -18.178000  -1.286300   3.898720 -27.333000  -0.002705   0.010395 -18.203800  -0.002333   0.002936   9.037230  -0.005686   3.170500  69.120500   8.716150   3.479730   1.785490 -14.650400   0.460868   0.093065 -12.413900   7.306290 -45.176500  28.855900  59.986700  18.112300   0.001298  -0.002279   4.056160   0.002545  -0.001932  17.126500   3.731240  11.925000  14.331500  -0.002376  -0.000911  10.032100  -0.010090  -0.000355  18.774600   3.797870  11.026100  19.141300  -0.001127  -0.000463  12.748100  -0.002475   0.000263  20.085800   2.089810   5.664520  20.189800  -0.004607  -0.002717  13.446400  -0.003398  -0.001068  19.744800   2.055530   5.676780  29.771000  -0.005686  -0.002432  19.827400  -0.004098  -0.000384   2.611060   4.295020  -1.504060   0.561368   0.052441  12.843600  -5.144980  -2.442860   2.281100   0.000000   0.000000   0.000000  -0.239979   0.671196  -2.059160   1.379820   3.326810 -14.638100  -1.126950  -2.306350   3.169070  -0.000000   0.000000  -0.000000
 -0.346149  89.610100  -1.000640  -1.405840  -2.152110  -0.856164   0.711664   2.108040   0.030102   1.423670   4.216310   0.034010   1.502150  -1.053450   0.026718   2.473160  -2.132310   4.148650  -7.120920   2.652880   0.080706 -69.937800  20.792000  -5.125250  -2.032090  -1.525680 -10.179500   0.564145 -14.492300   1.350480  41.005100  25.365500 -63.018300 -11.117000   0.004308   0.004164  -0.564012   0.000192   0.000265 -17.654000   1.308620  -4.123390 -14.482600  -0.005033  -0.004359 -10.132100  -0.004912   0.000457 -17.102500   0.528235  -1.722520 -17.110500   0.000092  -0.004687 -11.390400  -0.002384  -0.003549 -15.581100  -0.745642   2.681410 -15.598400  -0.001583  -0.005390 -10.388600  -0.002735  -0.004112 -18.178200  -1.286310   3.894850 -27.333200  -0.002705   0.010394 -18.203900  -0.002332   0.002938   9.037910  -0.017663   3.170010  69.122800   8.714220   3.459150   1.794880 -14.646200   0.452044   0.120159 -12.384600   7.304290 -45.184000  28.848600  59.978300  18.091100   0.001297  -0.002278   4.045570   0.002541  -0.001930  17.114000   3.725130  11.914000  14.320500  -0.002372  -0.000909  10.024400  -0.010090  -0.000351  18.763800   3.794400  11.023200  19.130000  -0.001124  -0.000458  12.740600  -0.002477   0.000268  20.077600   2.089760   5.669930  20.181700  -0.004603  -0.002715  13.441000  -0.003398  -0.001067  19.737400   2.055500   5.682170  29.760000  -0.005684  -0.002430  19.820100  -0.004098  -0.000384   2.607470   4.307410  -1.508260   0.569734   0.028181  12.835900  -5.139290  -2.422800   2.273140  -0.000000   0.000000   0.000000  -0.235866   0.771959  -2.060170   1.388670   3.250820 -14.646100  -1.135240  -2.314630   3.156670   0.000000   0.000000  -0.000000
 -0.356976  89.610100  -1.014940  -1.404720  -2.171620  -0.818811   0.711673   2.117500   0.030058   1.423700   4.235230   0.033810   1.502320  -1.049470   0.026711   2.473120  -2.124390   4.148270  -7.120890   2.653010   0.080686 -69.912400  20.812200  -5.147040  -2.026420  -1.520560 -10.173500   0.575343 -14.505400   1.360850  40.999300  25.344500 -62.994700 -11.121200   0.004298   0.004165  -0.563767   0.000200   0.000263 -17.652100   1.308730  -4.121730 -14.481000  -0.005033  -0.004356 -10.136700  -0.004912   0.000457 -17.104900   0.528414  -1.720860 -17.112800   0.000096  -0.004685 -11.397200  -0.002380  -0.003548 -15.581900  -0.745425   2.680550 -15.599300  -0.001584  -0.005386 -10.389100  -0.002735  -0.004110 -18.179200  -1.286310   3.888510 -27.334600  -0.002704   0.010394 -18.204900  -0.002332   0.002943   9.039040  -0.037658   3.169520  69.125100   8.710500   3.425240   1.809890 -14.638700   0.438403   0.157682 -12.355400   7.300100 -45.201500  28.835600  59.956500  18.055500   0.001294  -0.002278   4.027780   0.002535  -0.001925  17.087500   3.715140  11.902900  14.297700  -0.002366  -0.000905  10.008400  -0.010090  -0.000346  18.740300   3.788330  11.020200  19.105800  -0.001118  -0.000448  12.724500  -0.002479   0.000276  20.060200   2.089670   5.678250  20.164300  -0.004596  -0.002710  13.429400  -0.003396  -0.001065  19.719800   2.055430   5.690510  29.733600  -0.005680  -0.002428  19.802500  -0.004096  -0.000383   2.601430   4.325680  -1.515420   0.581690   0.003917  12.823200  -5.134200  -2.393580   2.259500  -0.000000   0.000000   0.000000  -0.229945   0.872719  -2.063690   1.397490   3.174830 -14.654200  -1.147510  -2.328570   3.134170   0.000000   0.000000   0.000000
 -0.364897  89.610000  -1.025660  -1.401860  -2.190240  -0.788691   0.710515   2.126650   0.030024   1.421400   4.253550   0.033677   1.502460  -1.042620   0.026701   2.472970  -2.110460   4.149650  -7.120370   2.653080   0.080652 -69.899100  20.824400  -5.163080  -2.017550  -1.521870 -10.166400   0.576580 -14.526500   1.358040  40.989500  25.343700 -63.008400 -11.128600   0.004298   0.004173  -0.565394   0.000201   0.000265 -17.663100   1.308850  -4.128390 -14.490600  -0.005031  -0.004354 -10.145400  -0.004909   0.000456 -17.117700   0.528593  -1.726410 -17.125500   0.000102  -0.004682 -11.405400  -0.002378  -0.003545 -15.592400  -0.745337   2.672020 -15.609800  -0.001582  -0.005383 -10.396100  -0.002731  -0.004106 -18.190300  -1.286310   3.882510 -27.351300  -0.002702   0.010395 -18.215900  -0.002331   0.002949   9.039980  -0.054062   3.172080  69.124300   8.705580   3.398350   1.821230 -14.631200   0.429804   0.169092 -12.355600   7.293980 -45.226100  28.829400  59.908900  18.019100   0.001287  -0.002275   4.009560   0.002533  -0.001920  17.044400   3.705850  11.904600  14.261700  -0.002365  -0.000897   9.983160  -0.010099  -0.000344  18.700500   3.781390  11.023300  19.065400  -0.001112  -0.000441  12.697600  -0.002470   0.000277  20.032800   2.089580   5.683220  20.137300  -0.004588  -0.002702  13.411300  -0.003388  -0.001063  19.686100   2.055360   5.695640  29.683200  -0.005675  -0.002425  19.769000  -0.004087  -0.000383   2.596500   4.335500  -1.521560   0.590423   0.003913  12.813100  -5.136380  -2.377110   2.247830   0.000000   0.000000   0.000000  -0.225799   0.867631  -2.071000   1.397420   3.186120 -14.652200  -1.153640  -2.340010   3.111670   0.000000   0.000000   0.000000
